<svg id="_2959753_chat_communication_skype_icon" data-name="2959753_chat_communication_skype_icon" xmlns="http://www.w3.org/2000/svg" width="23.418" height="23.421" viewBox="0 0 23.418 23.421">
  <path id="Path_4115" data-name="Path 4115" d="M22.285,17.586a4.682,4.682,0,0,1,2.459.7l.529.332.62-.132A9.515,9.515,0,0,1,37.15,29.88l-.127.568.271.515a4.635,4.635,0,0,1,.534,2.176,4.7,4.7,0,0,1-6.943,4.123l-.5-.281-.571.117A9.515,9.515,0,0,1,18.55,25.964l.12-.622-.342-.534a4.694,4.694,0,0,1,3.957-7.222m0-1.586a6.28,6.28,0,0,0-5.292,9.664,11.1,11.1,0,0,0,13.14,12.992,6.282,6.282,0,0,0,8.573-8.427,11.1,11.1,0,0,0-13.133-13.3A6.251,6.251,0,0,0,22.285,16Z" transform="translate(-16.003 -16)" fill="#761a14"/>
  <path id="Path_4116" data-name="Path 4116" d="M40.961,39.71c0-2.811,2.811-3.83,5.433-3.83,4.065,0,4.987,2.4,5.2,3.089a1.265,1.265,0,0,1-1.366,1.464c-1.122-.124-1.276-1.708-3.462-2.323-.671-.185-2.833.085-2.833,1.347,0,1.122,3.66,1.674,5.458,2.369,1.883.732,2.74,1.742,2.74,3.46,0,3.484-3.762,4.318-5.319,4.318-4.923,0-5.992-3.416-5.992-3.994A1.244,1.244,0,0,1,42.1,44.285c1.7,0,1.044,3,4.3,3,2.554,0,2.811-1.183,2.811-1.764,0-1.671-4.457-2.252-4.457-2.252S40.961,42.67,40.961,39.71Z" transform="translate(-34.765 -31.03)" fill="#761a14"/>
</svg>
