<svg id="_7156625_wechat_chat_message_communication_talk_icon" data-name="7156625_wechat_chat_message_communication_talk_icon" xmlns="http://www.w3.org/2000/svg" width="24.922" height="20.211" viewBox="0 0 24.922 20.211">
  <path id="Path_4119" data-name="Path 4119" d="M25.49,26.173a1.457,1.457,0,0,1-.248,0L23.2,25.779a8.4,8.4,0,0,1-1.755.182c-4.151,0-7.53-3.037-7.53-6.766s3.379-6.766,7.53-6.766,7.538,3.015,7.538,6.744a6.38,6.38,0,0,1-2.025,4.6l-.124,1.18h0a1.347,1.347,0,0,1-1.34,1.209Zm-2.36-.43ZM23.254,25.743Zm2.782-.859Zm-2.848-.728a1.457,1.457,0,0,1,.248,0l1.828.342.1-1a1.333,1.333,0,0,1,.422-.838,4.792,4.792,0,0,0,1.588-3.51c0-2.848-2.658-5.163-5.935-5.163s-5.928,2.316-5.928,5.163,2.658,5.163,5.928,5.163a6.555,6.555,0,0,0,1.457-.16,1.253,1.253,0,0,1,.291-.007Z" transform="translate(-4.056 -5.967)" fill="#761a14"/>
  <path id="Path_4120" data-name="Path 4120" d="M4.662,20.01a1.333,1.333,0,0,1-.641-.168,1.355,1.355,0,0,1-.728-1.158V17.046A7.385,7.385,0,0,1,.38,11.286c.015-4.26,3.911-7.727,8.7-7.727A8.8,8.8,0,0,1,16.854,7.8a.8.8,0,1,1-1.391.794A7.217,7.217,0,0,0,9.1,5.161C5.2,5.161,2,7.907,2,11.286a5.826,5.826,0,0,0,2.367,4.574,1.318,1.318,0,0,1,.524,1.034v1.318l1.369-.838a1.333,1.333,0,0,1,1-.16,7.8,7.8,0,0,0,1.005.16.8.8,0,1,1-.146,1.595,9.585,9.585,0,0,1-1.1-.175L5.369,19.807A1.347,1.347,0,0,1,4.662,20.01Z" transform="translate(-0.38 -3.555)" fill="#761a14"/>
  <circle id="Ellipse_74" data-name="Ellipse 74" cx="0.903" cy="0.903" r="0.903" transform="translate(4.996 5.371)" fill="#761a14"/>
  <circle id="Ellipse_75" data-name="Ellipse 75" cx="0.903" cy="0.903" r="0.903" transform="translate(10.305 5.371)" fill="#761a14"/>
  <circle id="Ellipse_76" data-name="Ellipse 76" cx="0.787" cy="0.787" r="0.787" transform="translate(13.568 10.607)" fill="#761a14"/>
  <circle id="Ellipse_77" data-name="Ellipse 77" cx="0.787" cy="0.787" r="0.787" transform="translate(18.447 10.607)" fill="#761a14"/>
</svg>
