<svg id="_843786_whatsapp_icon" data-name="843786_whatsapp_icon" xmlns="http://www.w3.org/2000/svg" width="24.446" height="24.563" viewBox="0 0 24.446 24.563">
  <path id="Path_4117" data-name="Path 4117" d="M25,7.059A12.175,12.175,0,0,0,5.839,21.745L4.112,28.052l6.452-1.693a12.161,12.161,0,0,0,5.817,1.481h.005A12.177,12.177,0,0,0,25,7.059Zm-8.61,18.727h0a10.1,10.1,0,0,1-5.149-1.41l-.369-.219-3.829,1,1.022-3.733-.241-.383a10.116,10.116,0,1,1,8.57,4.741Z" transform="translate(-4.112 -3.489)" fill="#761a14" fill-rule="evenodd"/>
  <path id="Path_4118" data-name="Path 4118" d="M28.17,24.916c-.3-.152-1.8-.888-2.078-.989s-.482-.152-.684.152-.786.989-.963,1.193-.355.228-.659.076a8.306,8.306,0,0,1-2.446-1.509,9.167,9.167,0,0,1-1.692-2.107c-.177-.3-.019-.469.133-.621.137-.136.3-.355.456-.533a2.077,2.077,0,0,0,.3-.507.56.56,0,0,0-.025-.533c-.076-.152-.684-1.649-.938-2.258-.247-.593-.5-.513-.684-.522s-.38-.011-.583-.011a1.117,1.117,0,0,0-.811.381,3.411,3.411,0,0,0-1.064,2.537,5.915,5.915,0,0,0,1.242,3.146,13.556,13.556,0,0,0,5.2,4.592,17.461,17.461,0,0,0,1.734.641,4.168,4.168,0,0,0,1.916.121,3.132,3.132,0,0,0,2.053-1.446,2.542,2.542,0,0,0,.177-1.446C28.677,25.144,28.474,25.068,28.17,24.916Z" transform="translate(-10.347 -10.196)" fill="#761a14" fill-rule="evenodd"/>
</svg>
