<svg id="comp_x5F_359-viber" xmlns="http://www.w3.org/2000/svg" width="24.318" height="25.645" viewBox="0 0 24.318 25.645">
  <g id="Group_446" data-name="Group 446">
    <path id="Path_4114" data-name="Path 4114" d="M59.477,28.5c-.636-.586-3.21-2.454-8.95-2.479,0,0-6.766-.406-10.061,2.619-1.833,1.833-2.479,4.522-2.549,7.853s-.155,9.571,5.86,11.263h0l0,2.584s-.04,1.047.651,1.257c.831.26,1.322-.536,2.118-1.392.436-.471,1.037-1.162,1.492-1.688a23.273,23.273,0,0,0,7.638-.561c.831-.27,5.534-.871,6.3-7.112C62.762,34.4,61.59,30.336,59.477,28.5Zm.7,11.874c-.646,5.208-4.457,5.539-5.158,5.764a21.533,21.533,0,0,1-6.571.561s-2.6,3.14-3.416,3.956c-.265.265-.556.24-.551-.286,0-.345.02-4.292.02-4.292h0c-5.1-1.412-4.8-6.726-4.743-9.506s.581-5.058,2.134-6.591c2.79-2.529,8.534-2.154,8.534-2.154,4.853.02,7.177,1.482,7.718,1.973,1.788,1.533,2.7,5.2,2.033,10.572Zm-6.961-4.047a.323.323,0,1,1-.646.03,1.549,1.549,0,0,0-1.633-1.7.323.323,0,0,1,.035-.646A2.178,2.178,0,0,1,53.212,36.326Zm1.017.566a3.741,3.741,0,0,0-3.8-3.971.324.324,0,0,1,.045-.646,4.386,4.386,0,0,1,4.4,4.633A.323.323,0,0,1,54.228,36.891Zm2.354.671a.323.323,0,0,1-.646.005c-.03-4.082-2.749-6.305-6.05-6.33a.323.323,0,0,1,0-.646C53.577,30.616,56.547,33.165,56.582,37.563Zm-.566,4.913v.01c-.541.952-1.553,2-2.594,1.668l-.01-.015a19.247,19.247,0,0,1-5.118-2.83,13.094,13.094,0,0,1-2.124-2.123,16.261,16.261,0,0,1-1.542-2.334,14.965,14.965,0,0,1-1.3-2.79c-.336-1.042.711-2.053,1.668-2.594H45a.912.912,0,0,1,1.2.2s.621.741.886,1.107c.25.341.586.886.761,1.192a1.046,1.046,0,0,1-.185,1.332l-.6.481a.881.881,0,0,0-.265.7A6.271,6.271,0,0,0,51.018,40.7a.881.881,0,0,0,.7-.265l.481-.6a1.046,1.046,0,0,1,1.332-.185,12.973,12.973,0,0,1,2.294,1.648.9.9,0,0,1,.19,1.182Z" transform="translate(-37.901 -26.001)" fill="#761a14"/>
  </g>
</svg>
