<svg id="directions_bus-24px" xmlns="http://www.w3.org/2000/svg" width="16" height="16" viewBox="0 0 16 16">
  <path id="Path_4102" data-name="Path 4102" d="M0,0H16V16H0Z" fill="none"/>
  <path id="Path_4103" data-name="Path 4103" d="M4,13.113a2.327,2.327,0,0,0,.83,1.762v1.413a.815.815,0,0,0,.83.794h.83a.815.815,0,0,0,.83-.794v-.794h6.643v.794a.815.815,0,0,0,.83.794h.83a.815.815,0,0,0,.83-.794V14.875a2.327,2.327,0,0,0,.83-1.762V5.175C17.285,2.4,14.313,2,10.643,2S4,2.4,4,5.175Zm2.906.794a1.192,1.192,0,1,1,1.245-1.191A1.217,1.217,0,0,1,6.906,13.907Zm7.473,0a1.192,1.192,0,1,1,1.245-1.191A1.217,1.217,0,0,1,14.379,13.907Zm1.245-4.763H5.661V5.175h9.964Z" transform="translate(-2.643 -1.082)" fill="#e9b520"/>
</svg>
