<svg id="Group_456" data-name="Group 456" xmlns="http://www.w3.org/2000/svg" width="17.419" height="24" viewBox="0 0 17.419 24">
  <path id="Path_2910" data-name="Path 2910" d="M381.843,243.205c.084-.4.178-.808.257-1.217a9.517,9.517,0,0,0,.173-1.637,15.05,15.05,0,0,0-.068-2,9.259,9.259,0,0,0-.7-2.482,24.177,24.177,0,0,0-1.658-3.054c-.567-.934-1.149-1.857-1.642-2.833a11.749,11.749,0,0,1-1.217-3.432,5.829,5.829,0,0,1,1.049-4.591,7.612,7.612,0,0,1,.9-.986c.031-.026.058-.063.11-.068.026.047,0,.089-.01.131a6.311,6.311,0,0,0,.441,4.234,20.876,20.876,0,0,0,2.576,4.077c.588.745,1.212,1.469,1.763,2.246a7.091,7.091,0,0,1,1.312,3.369,7.942,7.942,0,0,1-.362,3.269,13.621,13.621,0,0,1-2.073,3.951c-.236.32-.483.63-.745.929a.591.591,0,0,0-.063.094A.119.119,0,0,1,381.843,243.205Z" transform="translate(-373.59 -219.205)" fill="#761a14"/>
  <path id="Path_2911" data-name="Path 2911" d="M446.885,203.512c-.031.241-.058.488-.094.729a7.1,7.1,0,0,1-1.8,3.657c-.131.147-.268.283-.4.42-.016.016-.037.047-.063.037s-.021-.052-.016-.079a10.5,10.5,0,0,0,.157-1.286c.016-.283.021-.567.01-.85a12.76,12.76,0,0,0-.136-1.543,5.954,5.954,0,0,0-.9-2.34,13.275,13.275,0,0,0-1.427-1.863c-.666-.735-1.411-1.385-2.146-2.052a16.811,16.811,0,0,1-2.77-3.08,8.143,8.143,0,0,1-1.343-3.127,5.027,5.027,0,0,1,.551-3.447c.016-.026.031-.052.047-.073.005-.005.016-.005.031-.016a4.794,4.794,0,0,0,.892,2.65,14.85,14.85,0,0,0,1.884,2.4,25.13,25.13,0,0,0,3.285,2.823,17.071,17.071,0,0,1,2.429,2.13,6.8,6.8,0,0,1,1.548,2.508,5.437,5.437,0,0,1,.247,1.333.353.353,0,0,0,.021.126Z" transform="translate(-429.466 -188.6)" fill="#761a14"/>
  <path id="Path_2912" data-name="Path 2912" d="M316.555,282.7c-.032.1-.058.2-.089.3a9.834,9.834,0,0,0-.383,3.337,9.036,9.036,0,0,0,.446,2.235c.336,1.065.766,2.1,1.123,3.154a19.516,19.516,0,0,1,.929,3.4,5.074,5.074,0,0,1-.268,2.765c-.026.063-.042.173-.1.173s-.073-.1-.1-.168a14.8,14.8,0,0,0-1.385-2.361c-.577-.839-1.191-1.658-1.684-2.55a7.813,7.813,0,0,1-.965-2.949,8.6,8.6,0,0,1,.661-4.292,12.788,12.788,0,0,1,1.747-3C316.5,282.737,316.507,282.705,316.555,282.7Z" transform="translate(-314.016 -277.763)" fill="#761a14"/>
</svg>
