<svg id="map-pin-2-line" xmlns="http://www.w3.org/2000/svg" width="20" height="20" viewBox="0 0 20 20">
  <path id="Path_3607" data-name="Path 3607" d="M0,0H20V20H0Z" fill="none"/>
  <path id="Path_3608" data-name="Path 3608" d="M10,19.728,5.05,14.536a7.6,7.6,0,0,1,0-10.385,6.771,6.771,0,0,1,9.9,0,7.6,7.6,0,0,1,0,10.385Zm3.85-6.346a5.911,5.911,0,0,0,0-8.077,5.266,5.266,0,0,0-7.7,0,5.911,5.911,0,0,0,0,8.077L10,17.421l3.85-4.039ZM10,10.975a1.634,1.634,0,1,1,1.556-1.632A1.6,1.6,0,0,1,10,10.975Z" transform="translate(0)" fill="#fff"/>
</svg>
