<svg id="photo_camera-24px" xmlns="http://www.w3.org/2000/svg" width="24" height="24" viewBox="0 0 24 24">
  <path id="Path_4098" data-name="Path 4098" d="M0,0H24V24H0Z" fill="none"/>
  <circle id="Ellipse_51" data-name="Ellipse 51" cx="3.2" cy="3.2" r="3.2" transform="translate(8.8 8.8)" fill="#fff"/>
  <path id="Path_4099" data-name="Path 4099" d="M9,2,7.17,4H4A2.006,2.006,0,0,0,2,6V18a2.006,2.006,0,0,0,2,2H20a2.006,2.006,0,0,0,2-2V6a2.006,2.006,0,0,0-2-2H16.83L15,2Zm3,15a5,5,0,1,1,5-5A5,5,0,0,1,12,17Z" fill="#fff"/>
</svg>
