<svg xmlns="http://www.w3.org/2000/svg" xmlns:xlink="http://www.w3.org/1999/xlink" width="345" height="256.376" viewBox="0 0 345 256.376">
  <defs>
    <linearGradient id="linear-gradient" x1="0.332" y1="-0.087" x2="0.675" y2="0.978" gradientUnits="objectBoundingBox">
      <stop offset="0" stop-color="#e8b420"/>
      <stop offset="1" stop-color="#e98823"/>
    </linearGradient>
    <linearGradient id="linear-gradient-2" x1="0.4" y1="-0.041" x2="0.658" y2="1.161" xlink:href="#linear-gradient"/>
    <linearGradient id="linear-gradient-3" x1="0.127" y1="-0.294" x2="0.738" y2="1.251" xlink:href="#linear-gradient"/>
  </defs>
  <g id="svgei" transform="translate(-59 -188.6)">
    <g id="Group_23" data-name="Group 23" transform="translate(163.484 188.6)">
      <path id="Path_2910" data-name="Path 2910" d="M415.577,395.1c.656-3.155,1.393-6.311,2.008-9.507a74.369,74.369,0,0,0,1.352-12.785,117.556,117.556,0,0,0-.533-15.654,72.313,72.313,0,0,0-5.491-19.383c-3.565-8.359-8.236-16.1-12.949-23.849-4.426-7.294-8.974-14.506-12.826-22.128-4.344-8.523-7.95-17.293-9.507-26.8-2.131-13.072.246-25.119,8.2-35.856a59.441,59.441,0,0,1,7.007-7.7c.246-.2.451-.492.861-.533.2.369,0,.7-.082,1.024a49.283,49.283,0,0,0,3.442,33.069,163.045,163.045,0,0,0,20.12,31.84c4.589,5.819,9.466,11.474,13.768,17.539a55.38,55.38,0,0,1,10.245,26.308,62.03,62.03,0,0,1-2.828,25.529,106.375,106.375,0,0,1-16.186,30.856c-1.844,2.5-3.77,4.917-5.819,7.253a4.613,4.613,0,0,0-.492.738A.923.923,0,0,1,415.577,395.1Z" transform="translate(-351.125 -207.664)" fill="url(#linear-gradient)"/>
      <path id="Path_2911" data-name="Path 2911" d="M521.97,305.059c-.246,1.885-.451,3.811-.737,5.7a55.441,55.441,0,0,1-14.1,28.561c-1.025,1.147-2.09,2.213-3.155,3.278-.123.123-.287.369-.492.287-.287-.123-.164-.41-.123-.615a82.006,82.006,0,0,0,1.229-10.04c.123-2.213.164-4.426.082-6.638a99.638,99.638,0,0,0-1.065-12.047,46.5,46.5,0,0,0-7.007-18.276,103.677,103.677,0,0,0-11.146-14.547c-5.2-5.737-11.023-10.818-16.76-16.022-8.031-7.253-15.571-15-21.636-24.054-5.04-7.458-8.892-15.49-10.49-24.423a39.257,39.257,0,0,1,4.3-26.922c.123-.2.246-.41.369-.574.041-.041.123-.041.246-.123a44.639,44.639,0,0,0,.7,6.188,44.806,44.806,0,0,0,6.269,14.506,115.989,115.989,0,0,0,14.711,18.768,196.265,196.265,0,0,0,25.652,22.046,133.306,133.306,0,0,1,18.973,16.637c5.327,5.737,9.63,12.088,12.089,19.587a42.455,42.455,0,0,1,1.926,10.408,2.755,2.755,0,0,0,.164.984Z" transform="translate(-385.93 -188.6)" fill="url(#linear-gradient-2)"/>
      <path id="Path_2912" data-name="Path 2912" d="M333.843,282.7c-.246.82-.451,1.6-.7,2.377a76.8,76.8,0,0,0-2.991,26.062,70.553,70.553,0,0,0,3.483,17.456c2.622,8.318,5.983,16.391,8.769,24.628,2.95,8.687,5.9,17.416,7.253,26.554,1.066,7.376.861,14.629-2.09,21.6-.2.492-.328,1.352-.82,1.352-.574.041-.574-.82-.82-1.311a115.548,115.548,0,0,0-10.818-18.44c-4.508-6.556-9.3-12.949-13.154-19.915a61.025,61.025,0,0,1-7.54-23.03c-1.352-11.638.779-22.743,5.163-33.52a99.875,99.875,0,0,1,13.645-23.4C333.392,282.987,333.474,282.741,333.843,282.7Z" transform="translate(-314.016 -244.14)" fill="url(#linear-gradient-3)"/>
    </g>
    <g id="Group_24" data-name="Group 24" transform="translate(59 396.866)">
      <path id="Path_2913" data-name="Path 2913" d="M495.888,653.838a.949.949,0,0,0-.778.205c-1.107.7-1.967,1.762-2.992,2.541-2.745,2.089-6.474,2.049-9.876,1.967-4.344-.082-8.687-.082-12.99,0a41.049,41.049,0,0,1-7.786-.328,11.842,11.842,0,0,1-6.8-3.565c-.328-.368-.656-.819-1.147-.86-1.27-.082-.2,2.254,0,2.7.451,1.27,1.065,2.54,1.516,3.811.328.9.615,1.8.7,2.09l.287.779a13.48,13.48,0,0,1,.655,1.8c.164.573.246,2.049,1.271,1.639.451-.164.7-.615.983-1.025a6.6,6.6,0,0,1,4.344-2.458,23.129,23.129,0,0,1,5.327-.328c.943.041,1.8.041,2.7.082v26.923c0,.369,0,.861-.041,1.475,0,.287,0,.655-.041,1.106,0,.41-.041.9-.041,1.475,0,.287-.041.738-.082,1.271,0,0-.041.942-.164,1.844,0,.082-.041.286-.082.574a3.473,3.473,0,0,1-.123.532,2.364,2.364,0,0,1-1.434,1.557,11.953,11.953,0,0,1-2.049.369,7.361,7.361,0,0,0-1.639.123,1.029,1.029,0,0,0-.287.164.493.493,0,0,0,0,.574.855.855,0,0,0,.533.287,9.971,9.971,0,0,0,1.106.041h1.188c.778,0,1.6-.041,2.377-.082,1.27-.041,2.581-.082,3.852-.082.369,0,.574,0,2.664.082.983.041,1.106.041,1.475.041.574,0,1.065.041,1.8.041,1.065,0,2.131.041,3.2.041a2,2,0,0,0,.86-.123.623.623,0,0,0,.41-.533c0-.164-.164-.287-.287-.369a1.039,1.039,0,0,0-.492-.082c-.656,0-1.311-.041-1.926-.082a6.925,6.925,0,0,1-2.008-.369,2.363,2.363,0,0,1-1.434-1.557,2.573,2.573,0,0,1-.123-.533,2.16,2.16,0,0,1-.082-.574c-.123-.9-.164-1.844-.164-1.844-.041-.532-.041-.942-.082-1.27-.041-.573-.041-1.065-.041-1.475a8.92,8.92,0,0,0-.041-1.106c0-.615,0-1.106-.041-1.476v-26.84h1.68a31.636,31.636,0,0,1,5.245.164,8.074,8.074,0,0,1,2.869.9,7.723,7.723,0,0,1,2.459,2.131c.287.369.779.82,1.147.533a.7.7,0,0,0,.246-.41q2.336-5.409,4.425-10.941c.2-.615.328-1.393-.246-1.557" transform="translate(-291.509 -653.795)" fill="#751914"/>
      <path id="Path_2914" data-name="Path 2914" d="M66.581,695.682C60.6,690.437,59,683.594,59,677.693a22.945,22.945,0,0,1,7.13-16.719c4.385-4.016,10.2-6.474,19.3-6.474a60.248,60.248,0,0,1,8.851.615c2.336.287,4.467.86,6.27,1.024.656.041.738.369.738.738,0,.492-.164,1.229-.287,3.36-.123,2.008-.041,5.368-.164,6.6-.041.9-.164,1.475-.738,1.475-.492,0-.615-.532-.615-1.393a8.689,8.689,0,0,0-2.377-5.614c-2.008-2.131-6.761-3.77-12.375-3.77-5.327,0-8.81,1.352-11.474,3.77-4.508,4.056-5.655,9.875-5.655,15.776,0,14.547,11.064,21.718,19.219,21.718,5.45,0,8.728-.615,11.187-3.4a10.536,10.536,0,0,0,2.09-4.016c.164-.984.287-1.23.779-1.23.41,0,.533.41.533.9a57.806,57.806,0,0,1-1.352,8.114,2.092,2.092,0,0,1-1.6,1.762c-2.459.983-7.089,1.393-10.982,1.393-8.318.041-15.367-1.8-20.9-6.638" transform="translate(-59 -654.211)" fill="#751914"/>
      <path id="Path_2915" data-name="Path 2915" d="M184.168,688.557c0-7.949,0-9.1-.123-10.736-.123-1.844-.615-2.623-2.254-2.909-.656-.123-1.393-.164-2.09-.246-.615,0-.9-.164-.9-.533s.369-.533,1.147-.533c2.746,0,6.474.164,7.5.164,1.639,0,5.983-.164,7.827-.164,3.647,0,7.253.369,10,2.131a8.934,8.934,0,0,1,3.975,7.253c0,3.893-1.844,7.376-7.13,11.351,4.508,5.614,8.318,10.449,11.474,13.687,2.909,3.114,4.958,3.36,5.9,3.605.533.082.983.082,1.393.123.492,0,.738.246.738.492,0,.41-.369.615-1.024.615h-5.122c-3.524,0-5.081-.369-6.6-1.147-2.131-1.147-4.139-3.524-6.966-7.376-2.213-3.032-4.466-6.27-5.245-7.212-.164-.246-.492-.287-.861-.287l-4.344-.123a.367.367,0,0,0-.41.41v1.106c0,4.712,0,8.318.246,10.449.123,1.516.492,2.7,2.131,2.868.738.164,1.844.164,2.582.246.492,0,.656.246.656.492,0,.369-.369.615-1.024.615-3.237,0-7.5-.164-8.319-.164-.9,0-4.63.164-6.761.164-.656,0-1.024-.164-1.024-.533,0-.246.246-.533.86-.533a12.211,12.211,0,0,0,1.967-.164c1.024-.246,1.393-1.352,1.516-2.95a106.13,106.13,0,0,0,.287-10.859Zm6.884,3.934c0,.492.123.738.492.861a12.847,12.847,0,0,0,4.1.615c1.967,0,2.827-.246,3.729-.9,1.516-1.106,2.991-3.36,2.991-7.5,0-7.376-5.081-9.343-8.114-9.343a10.471,10.471,0,0,0-2.746.246c-.287.123-.41.287-.41.738v15.285Z" transform="translate(-129.709 -665.484)" fill="#751914"/>
      <path id="Path_2916" data-name="Path 2916" d="M286.527,687.907c0-7.949,0-9.343-.123-11.063s-.533-2.377-2.213-2.745a14.415,14.415,0,0,0-2.09-.164c-.615,0-.9-.164-.9-.533s.369-.492,1.229-.492c2.582,0,5,.164,7.7.164,1.639,0,12.826,0,13.81-.041,1.024-.123,1.967-.246,2.459-.287a3.953,3.953,0,0,1,.861-.246c.287,0,.369.246.369.492a21,21,0,0,0-.492,3.279c-.041.983-.123,2.008-.246,3.606,0,.287-.123.861-.615.861-.369,0-.492-.287-.533-.983a4.685,4.685,0,0,0-.287-1.721c-.369-.983-.861-1.516-3.483-1.844-1.024-.123-6.515-.246-7.745-.246-.246,0-.369.164-.369.533V689.1c0,.369.041.532.369.532,1.27,0,7.13,0,8.482-.041,1.516-.123,2.336-.287,2.828-.861.369-.492.615-.656.86-.656s.369.123.369.41c0,.369-.246,1.516-.41,4.016,0,1.025-.164,3.237-.164,3.647s-.041.984-.533.984c-.369,0-.533-.533-.533-.861a9.771,9.771,0,0,0-.164-1.393c-.287-1.148-.9-1.967-3.032-2.131-1.107-.123-6.229-.164-7.581-.164-.287,0-.369.246-.369.533v3.975c0,1.762-.041,6.024,0,7.622.123,3.606.9,4.385,6.515,4.385a13.862,13.862,0,0,0,5-.615c1.393-.655,2.008-1.721,2.459-3.893.123-.533.246-.861.656-.861s.41.492.41,1.025a34.589,34.589,0,0,1-.738,6.105c-.369,1.352-.861,1.352-2.869,1.352-5.327,0-9.875-.287-15.326-.287-2.213,0-4.385.164-6.966.164-.738,0-1.106-.164-1.106-.532,0-.246.164-.533.9-.533a11.477,11.477,0,0,0,1.885-.164c1.106-.246,1.393-1.393,1.6-3.237.246-2.131.246-6.105.246-10.572v-9.138Z" transform="translate(-190.157 -664.835)" fill="#751914"/>
      <path id="Path_2917" data-name="Path 2917" d="M372.465,698.255c-.246,0-.369.123-.492.409l-2.7,6.638a11.027,11.027,0,0,0-.779,3.156c0,1.516,1.885,1.6,3.032,1.6.738,0,.9.246.9.492,0,.41-.41.532-.984.532-1.885,0-4.1-.164-5.983-.164-.615,0-3.647.164-6.475.164-.656,0-.983-.123-.983-.532,0-.287.287-.533.738-.533,3.852-.369,4.712-1.106,6.106-4.631l12.949-30.569c1.106-2.868,1.721-4.016,2.377-4.016.492,0,.778.533,1.393,1.885,1.024,2.991,10.08,23.808,13.482,31.635,1.967,4.59,3.483,5.368,4.754,5.614a11,11,0,0,0,2.008.123c.656,0,.9.246.9.533,0,.369-.246.532-1.024.532-2.582,0-8.974.123-12.826-.123-.533-.041-.9-.164-.9-.492,0-.246.246-.368.533-.491.533-.164.983-.369.615-1.106l-4.057-10.286a.454.454,0,0,0-.492-.369Zm10.941-3.074c.287,0,.287-.123.246-.287L378.9,682.438c-.164-.492-.369-.615-.615,0l-4.835,12.457c-.041.164,0,.287.246.287Z" transform="translate(-235.49 -663.832)" fill="#751914"/>
      <path id="Path_2918" data-name="Path 2918" d="M554,692.007c0-9.138,6.106-20.407,22.169-20.407,13.441,0,21.6,8.236,21.6,19.423,0,11.884-8.359,21.227-22.087,21.227-15.326,0-21.677-11.023-21.677-20.243m35.855.983c0-11.064-6.352-18.6-15.244-18.6-5.983,0-12.7,3.032-12.7,15.859,0,10.613,5.819,19.177,15.94,19.177,3.688-.041,12.006-1.557,12.006-16.432" transform="translate(-351.182 -664.304)" fill="#751914"/>
      <path id="Path_2919" data-name="Path 2919" d="M689.849,695.815c0,7.5,1.475,10.613,4.221,12.7a11.17,11.17,0,0,0,13.523-.656c2.991-2.828,3.032-7.622,3.032-12.949v-6.475c0-7.827-.123-9.1-.164-10.736-.123-1.762-.41-2.623-2.213-2.909a15.872,15.872,0,0,0-1.967-.246c-.615,0-.9-.164-.9-.533s.287-.533,1.147-.533c2.745,0,6.146.164,6.351.164.738,0,4.1-.164,6.27-.164.779,0,1.147.164,1.147.533s-.287.533-.983.533a5.821,5.821,0,0,0-1.6.246c-1.393.246-1.762,1.024-1.885,2.868-.123,1.639-.164,2.991-.164,10.818v5.491c0,5.819-.533,11.966-5.2,15.736a16.753,16.753,0,0,1-11.187,3.647c-3.155,0-8.319-.287-12.088-3.606-2.746-2.336-4.835-6.106-4.835-13.687v-7.622c0-7.95,0-9.138-.123-10.859-.123-1.639-.492-2.459-2.131-2.828-.492-.123-1.475-.164-2.213-.246-.615,0-.984-.246-.984-.615s.41-.492,1.27-.492c2.746,0,6.474.164,7.868.164,1.147,0,5.122-.164,7.007-.164.861,0,1.229.164,1.229.533s-.369.532-.9.532a12.668,12.668,0,0,0-1.6.246c-1.475.246-1.885,1.147-1.967,2.909-.123,1.639-.123,3.156-.123,10.737v7.458Z" transform="translate(-423.73 -665.366)" fill="#751914"/>
      <path id="Path_2920" data-name="Path 2920" d="M801.768,688.557c0-7.949,0-9.1-.123-10.736-.123-1.844-.615-2.623-2.254-2.909-.656-.123-1.393-.164-2.09-.246-.615,0-.9-.164-.9-.533s.369-.533,1.147-.533c2.745,0,6.474.164,7.5.164,1.639,0,5.983-.164,7.827-.164,3.647,0,7.253.369,10,2.131a8.933,8.933,0,0,1,3.975,7.253c0,3.893-1.844,7.376-7.13,11.351,4.508,5.614,8.319,10.449,11.474,13.687,2.951,3.114,4.958,3.36,5.942,3.605.532.082.984.082,1.393.123.491,0,.738.246.738.492,0,.41-.369.615-1.024.615h-5.122c-3.524,0-5.081-.369-6.6-1.147-2.131-1.147-4.139-3.524-6.966-7.376-2.213-3.032-4.467-6.27-5.245-7.212-.164-.246-.492-.287-.86-.287l-4.344-.123a.367.367,0,0,0-.41.41v1.106c0,4.712,0,8.318.246,10.449.123,1.516.492,2.7,2.131,2.868.738.164,1.844.164,2.582.246.492,0,.656.246.656.492,0,.369-.369.615-1.024.615-3.237,0-7.5-.164-8.319-.164-.9,0-4.631.164-6.761.164-.655,0-1.024-.164-1.024-.533,0-.246.246-.533.861-.533a12.212,12.212,0,0,0,1.967-.164c1.024-.246,1.394-1.352,1.516-2.95a106,106,0,0,0,.287-10.859v-9.3Zm6.925,3.934c0,.492.123.738.492.861a12.848,12.848,0,0,0,4.1.615c1.967,0,2.827-.246,3.728-.9,1.517-1.106,2.992-3.36,2.992-7.5,0-7.376-5.081-9.343-8.114-9.343a10.469,10.469,0,0,0-2.746.246c-.287.123-.41.287-.41.738v15.285Z" transform="translate(-494.262 -665.484)" fill="#751914"/>
    </g>
  </g>
</svg>
