<svg xmlns="http://www.w3.org/2000/svg" width="18" height="13" viewBox="0 0 18 13">
  <path id="youtube" d="M18.987,8.84a7.309,7.309,0,0,0-.744-3.471,2.375,2.375,0,0,0-1.406-.84,62.35,62.35,0,0,0-6.844-.261,62.416,62.416,0,0,0-6.819.252,2.324,2.324,0,0,0-1.194.622,4.417,4.417,0,0,0-.9,2.9,41.707,41.707,0,0,0,0,5.446,8.233,8.233,0,0,0,.245,1.681,2.665,2.665,0,0,0,.581,1.143,2.318,2.318,0,0,0,1.218.656,35.953,35.953,0,0,0,5.315.277c2.862.042,5.372,0,8.34-.235a2.333,2.333,0,0,0,1.251-.656,2.1,2.1,0,0,0,.5-.84,9.119,9.119,0,0,0,.425-2.857C18.987,12.185,18.987,9.344,18.987,8.84ZM8.145,13.16v-5.2l4.841,2.614C11.628,11.344,9.837,12.218,8.145,13.16Z" transform="translate(-0.991 -4.258)" fill="#cbcbcb"/>
</svg>
