<svg xmlns="http://www.w3.org/2000/svg" xmlns:xlink="http://www.w3.org/1999/xlink" width="109" height="81" viewBox="0 0 109 81"><defs><linearGradient id="a" x1="0.332" y1="-0.087" x2="0.675" y2="0.978" gradientUnits="objectBoundingBox"><stop offset="0" stop-color="#e8b420"/><stop offset="1" stop-color="#e98823"/></linearGradient><linearGradient id="b" x1="0.4" y1="-0.041" x2="0.658" y2="1.161" xlink:href="#a"/><linearGradient id="c" x1="0.127" y1="-0.294" x2="0.738" y2="1.251" xlink:href="#a"/></defs><g transform="translate(-59 -188.6)"><g transform="translate(92.011 188.6)"><path d="M389.112,275.936c.207-1,.44-1.994.634-3a23.5,23.5,0,0,0,.427-4.039,37.139,37.139,0,0,0-.168-4.946,22.847,22.847,0,0,0-1.735-6.124,59.655,59.655,0,0,0-4.091-7.535c-1.4-2.3-2.835-4.583-4.052-6.991a28.992,28.992,0,0,1-3-8.467,14.381,14.381,0,0,1,2.589-11.328,18.78,18.78,0,0,1,2.214-2.434c.078-.065.142-.155.272-.168.065.117,0,.22-.026.324a15.571,15.571,0,0,0,1.087,10.448,51.512,51.512,0,0,0,6.357,10.059c1.45,1.838,2.991,3.625,4.35,5.541a17.5,17.5,0,0,1,3.237,8.312,19.6,19.6,0,0,1-.893,8.066A33.608,33.608,0,0,1,391.2,273.4c-.583.79-1.191,1.554-1.838,2.292a1.457,1.457,0,0,0-.155.233A.292.292,0,0,1,389.112,275.936Z" transform="translate(-368.749 -216.718)" fill="url(#a)"/><path d="M463.065,225.394c-.078.6-.142,1.2-.233,1.8a17.516,17.516,0,0,1-4.454,9.024c-.324.363-.66.7-1,1.036-.039.039-.091.117-.155.091-.091-.039-.052-.129-.039-.194a25.912,25.912,0,0,0,.388-3.172c.039-.7.052-1.4.026-2.1a31.483,31.483,0,0,0-.337-3.806,14.692,14.692,0,0,0-2.214-5.774,32.756,32.756,0,0,0-3.521-4.6c-1.644-1.812-3.483-3.418-5.3-5.062a41.477,41.477,0,0,1-6.836-7.6,20.092,20.092,0,0,1-3.314-7.716,12.4,12.4,0,0,1,1.359-8.506c.039-.065.078-.129.116-.181.013-.013.039-.013.078-.039a11.83,11.83,0,0,0,2.2,6.538,36.643,36.643,0,0,0,4.648,5.93,62.008,62.008,0,0,0,8.1,6.965,42.117,42.117,0,0,1,5.994,5.256,16.773,16.773,0,0,1,3.819,6.188,13.415,13.415,0,0,1,.609,3.288.871.871,0,0,0,.052.311Z" transform="translate(-420.084 -188.6)" fill="url(#b)"/><path d="M320.28,282.7c-.078.259-.142.5-.22.751a24.263,24.263,0,0,0-.945,8.234,22.291,22.291,0,0,0,1.1,5.515c.829,2.628,1.89,5.179,2.771,7.781a48.155,48.155,0,0,1,2.292,8.389,12.52,12.52,0,0,1-.66,6.823c-.065.155-.1.427-.259.427-.181.013-.181-.259-.259-.414a36.506,36.506,0,0,0-3.418-5.826c-1.424-2.071-2.939-4.091-4.156-6.292a19.28,19.28,0,0,1-2.382-7.276,21.225,21.225,0,0,1,1.631-10.59,31.554,31.554,0,0,1,4.311-7.393C320.138,282.791,320.164,282.713,320.28,282.7Z" transform="translate(-314.016 -270.517)" fill="url(#c)"/></g><g transform="translate(59 254.4)"><path d="M466.485,653.809a.3.3,0,0,0-.246.065c-.35.22-.621.557-.945.8a4.863,4.863,0,0,1-3.12.621c-1.372-.026-2.745-.026-4.1,0a12.967,12.967,0,0,1-2.46-.1,3.741,3.741,0,0,1-2.149-1.126c-.1-.116-.207-.259-.363-.272-.4-.026-.065.712,0,.854.142.4.337.8.479,1.2.1.285.194.57.22.66l.091.246a4.258,4.258,0,0,1,.207.57c.052.181.078.647.4.518.142-.052.22-.194.311-.324a2.087,2.087,0,0,1,1.372-.777,7.308,7.308,0,0,1,1.683-.1c.3.013.57.013.855.026v8.506c0,.117,0,.272-.013.466,0,.091,0,.207-.013.35s-.013.285-.013.466c0,.091-.013.233-.026.4,0,0-.013.3-.052.583,0,.026-.013.09-.026.181a1.1,1.1,0,0,1-.039.168.747.747,0,0,1-.453.492,3.776,3.776,0,0,1-.647.117,2.326,2.326,0,0,0-.518.039.324.324,0,0,0-.091.052.156.156,0,0,0,0,.181.27.27,0,0,0,.168.091,3.155,3.155,0,0,0,.349.013h.375c.246,0,.5-.013.751-.026.4-.013.816-.026,1.217-.026.117,0,.181,0,.842.026.311.013.35.013.466.013.181,0,.337.013.57.013.337,0,.673.013,1.01.013a.633.633,0,0,0,.272-.039.2.2,0,0,0,.129-.168c0-.052-.052-.091-.091-.117a.329.329,0,0,0-.155-.026c-.207,0-.414-.013-.608-.026a2.187,2.187,0,0,1-.634-.116.747.747,0,0,1-.453-.492.812.812,0,0,1-.039-.168.682.682,0,0,1-.026-.181c-.039-.285-.052-.583-.052-.583-.013-.168-.013-.3-.026-.4-.013-.181-.013-.336-.013-.466a2.822,2.822,0,0,0-.013-.35c0-.194,0-.35-.013-.466v-8.48h.531a9.995,9.995,0,0,1,1.657.052,2.55,2.55,0,0,1,.906.285,2.44,2.44,0,0,1,.777.673c.091.117.246.259.362.168a.221.221,0,0,0,.078-.129q.738-1.709,1.4-3.457c.065-.194.1-.44-.078-.492" transform="translate(-401.913 -653.795)" fill="#751914"/><path d="M61.4,667.511a7.629,7.629,0,0,1-.142-10.966,8.435,8.435,0,0,1,6.1-2.045,19.042,19.042,0,0,1,2.8.194c.738.091,1.411.272,1.981.324.207.013.233.117.233.233,0,.155-.052.388-.091,1.062-.039.634-.013,1.7-.052,2.085-.013.285-.052.466-.233.466-.155,0-.194-.168-.194-.44a2.745,2.745,0,0,0-.751-1.774,5.744,5.744,0,0,0-3.91-1.191,5.04,5.04,0,0,0-3.625,1.191,6.367,6.367,0,0,0-1.787,4.984,6.477,6.477,0,0,0,6.072,6.862c1.722,0,2.758-.194,3.534-1.074a3.329,3.329,0,0,0,.66-1.269c.052-.311.091-.388.246-.388.129,0,.168.13.168.285a18.263,18.263,0,0,1-.427,2.563.661.661,0,0,1-.5.557,11.149,11.149,0,0,1-3.47.44,9.533,9.533,0,0,1-6.6-2.1" transform="translate(-59 -654.409)" fill="#751914"/><path d="M180.5,678.326c0-2.512,0-2.874-.039-3.392-.039-.583-.194-.829-.712-.919-.207-.039-.44-.052-.66-.078-.194,0-.285-.052-.285-.168s.117-.168.362-.168c.867,0,2.046.052,2.369.052.518,0,1.89-.052,2.473-.052a5.865,5.865,0,0,1,3.159.673,2.822,2.822,0,0,1,1.256,2.292c0,1.23-.583,2.33-2.253,3.586,1.424,1.774,2.628,3.3,3.625,4.324a3.228,3.228,0,0,0,1.864,1.139c.168.026.311.026.44.039.155,0,.233.078.233.155,0,.129-.117.194-.324.194h-1.618a4.141,4.141,0,0,1-2.084-.362,7.85,7.85,0,0,1-2.2-2.33c-.7-.958-1.411-1.981-1.657-2.279-.052-.078-.155-.091-.272-.091L182.8,680.9a.116.116,0,0,0-.129.13v.35c0,1.489,0,2.628.078,3.3.039.479.155.855.673.906.233.052.583.052.816.078.155,0,.207.078.207.155,0,.116-.117.194-.324.194-1.023,0-2.369-.052-2.628-.052-.285,0-1.463.052-2.136.052-.207,0-.324-.052-.324-.168,0-.078.078-.168.272-.168a3.868,3.868,0,0,0,.621-.052c.324-.078.44-.427.479-.932a33.526,33.526,0,0,0,.091-3.431Zm2.175,1.243c0,.155.039.233.155.272a4.06,4.06,0,0,0,1.295.194,1.75,1.75,0,0,0,1.178-.285,2.755,2.755,0,0,0,.945-2.369,2.613,2.613,0,0,0-2.563-2.952,3.308,3.308,0,0,0-.867.078c-.091.039-.129.091-.129.233v4.829Z" transform="translate(-163.29 -671.036)" fill="#751914"/><path d="M282.883,677.368c0-2.512,0-2.952-.039-3.5s-.168-.751-.7-.867a4.569,4.569,0,0,0-.66-.052c-.194,0-.285-.052-.285-.168s.116-.155.388-.155c.816,0,1.579.052,2.434.052.518,0,4.052,0,4.363-.013.324-.039.621-.078.777-.091a1.251,1.251,0,0,1,.272-.078c.091,0,.116.078.116.155a6.635,6.635,0,0,0-.155,1.036c-.013.311-.039.634-.078,1.139,0,.091-.039.272-.194.272-.116,0-.155-.091-.168-.311a1.48,1.48,0,0,0-.091-.544c-.117-.311-.272-.479-1.1-.583-.324-.039-2.059-.078-2.447-.078-.078,0-.117.052-.117.168v3.988c0,.117.013.168.117.168.4,0,2.253,0,2.68-.013.479-.039.738-.091.893-.272.117-.155.194-.207.272-.207s.117.039.117.13c0,.116-.078.479-.129,1.269,0,.324-.052,1.023-.052,1.152s-.013.311-.168.311c-.116,0-.168-.168-.168-.272a3.086,3.086,0,0,0-.052-.44c-.091-.363-.285-.622-.958-.673-.35-.039-1.968-.052-2.4-.052-.091,0-.117.078-.117.168v1.256c0,.557-.013,1.9,0,2.408.039,1.139.285,1.385,2.059,1.385a4.38,4.38,0,0,0,1.579-.194c.44-.207.634-.544.777-1.23.039-.168.078-.272.207-.272s.13.155.13.324a10.928,10.928,0,0,1-.233,1.929c-.117.427-.272.427-.906.427-1.683,0-3.12-.091-4.842-.091-.7,0-1.385.052-2.2.052-.233,0-.35-.052-.35-.168,0-.078.052-.168.285-.168a3.619,3.619,0,0,0,.6-.052c.35-.078.44-.44.5-1.023.078-.673.078-1.929.078-3.34v-2.887Z" transform="translate(-252.436 -670.078)" fill="#751914"/><path d="M362.57,679.474c-.078,0-.117.039-.155.129l-.855,2.1a3.483,3.483,0,0,0-.246,1c0,.479.6.5.958.5.233,0,.285.078.285.155,0,.129-.13.168-.311.168-.6,0-1.295-.052-1.89-.052-.194,0-1.152.052-2.046.052-.207,0-.311-.039-.311-.168,0-.091.091-.168.233-.168,1.217-.117,1.489-.349,1.929-1.463l4.091-9.658c.35-.906.544-1.269.751-1.269.155,0,.246.168.44.6.324.945,3.185,7.522,4.259,9.995.621,1.45,1.1,1.7,1.5,1.774a3.477,3.477,0,0,0,.634.039c.207,0,.285.078.285.168,0,.116-.078.168-.324.168-.816,0-2.835.039-4.052-.039-.168-.013-.285-.052-.285-.156,0-.078.078-.116.168-.155.168-.052.311-.117.194-.349l-1.282-3.25a.143.143,0,0,0-.155-.117Zm3.457-.971c.091,0,.091-.039.078-.091l-1.5-3.936c-.052-.155-.116-.194-.194,0l-1.528,3.936c-.013.052,0,.091.078.091Z" transform="translate(-319.294 -668.599)" fill="#751914"/><path d="M554,678.047c0-2.887,1.929-6.447,7-6.447,4.246,0,6.823,2.6,6.823,6.137,0,3.755-2.641,6.706-6.978,6.706-4.842,0-6.849-3.483-6.849-6.4m11.328.311c0-3.5-2.007-5.878-4.816-5.878-1.89,0-4.013.958-4.013,5.01,0,3.353,1.838,6.059,5.036,6.059,1.165-.013,3.793-.492,3.793-5.192" transform="translate(-489.921 -669.295)" fill="#751914"/><path d="M680.991,680.482c0,2.369.466,3.353,1.334,4.013a3.529,3.529,0,0,0,4.272-.207c.945-.893.958-2.408.958-4.091v-2.046c0-2.473-.039-2.874-.052-3.392-.039-.557-.129-.829-.7-.919a5.019,5.019,0,0,0-.622-.078c-.194,0-.285-.052-.285-.168s.091-.168.362-.168c.867,0,1.942.052,2.007.052.233,0,1.295-.052,1.981-.052.246,0,.362.052.362.168s-.091.168-.311.168a1.844,1.844,0,0,0-.5.078c-.44.078-.557.323-.6.906-.039.518-.052.945-.052,3.418V679.9c0,1.838-.168,3.78-1.644,4.972a5.293,5.293,0,0,1-3.534,1.152,5.711,5.711,0,0,1-3.819-1.139c-.867-.738-1.528-1.929-1.528-4.324v-2.408c0-2.512,0-2.887-.039-3.431-.039-.518-.155-.777-.673-.893-.155-.039-.466-.052-.7-.078-.194,0-.311-.078-.311-.194s.13-.155.4-.155c.867,0,2.046.052,2.486.052.363,0,1.618-.052,2.214-.052.272,0,.388.052.388.168s-.117.168-.285.168a4.01,4.01,0,0,0-.505.078c-.466.078-.6.363-.621.919-.039.518-.039,1-.039,3.392v2.356Z" transform="translate(-596.913 -670.862)" fill="#751914"/><path d="M798.1,678.326c0-2.512,0-2.874-.039-3.392-.039-.583-.194-.829-.712-.919-.207-.039-.44-.052-.66-.078-.194,0-.285-.052-.285-.168s.117-.168.363-.168c.867,0,2.045.052,2.369.052.518,0,1.89-.052,2.473-.052a5.864,5.864,0,0,1,3.159.673,2.822,2.822,0,0,1,1.256,2.292c0,1.23-.583,2.33-2.253,3.586,1.424,1.774,2.628,3.3,3.625,4.324a3.244,3.244,0,0,0,1.877,1.139c.168.026.311.026.44.039.155,0,.233.078.233.155,0,.129-.116.194-.324.194H808a4.14,4.14,0,0,1-2.084-.362,7.848,7.848,0,0,1-2.2-2.33c-.7-.958-1.411-1.981-1.657-2.279-.052-.078-.155-.091-.272-.091l-1.372-.039a.116.116,0,0,0-.129.13v.35c0,1.489,0,2.628.078,3.3.039.479.155.855.673.906.233.052.583.052.816.078.156,0,.207.078.207.155,0,.116-.117.194-.324.194-1.023,0-2.369-.052-2.628-.052-.285,0-1.463.052-2.136.052-.207,0-.324-.052-.324-.168,0-.078.078-.168.272-.168a3.868,3.868,0,0,0,.621-.052c.324-.078.44-.427.479-.932a33.492,33.492,0,0,0,.091-3.431v-2.939Zm2.188,1.243c0,.155.039.233.155.272a4.06,4.06,0,0,0,1.295.194,1.75,1.75,0,0,0,1.178-.285,2.755,2.755,0,0,0,.945-2.369,2.613,2.613,0,0,0-2.563-2.952,3.308,3.308,0,0,0-.867.078c-.091.039-.129.091-.129.233v4.829Z" transform="translate(-700.942 -671.036)" fill="#751914"/></g></g></svg>