<svg xmlns="http://www.w3.org/2000/svg" xmlns:xlink="http://www.w3.org/1999/xlink" width="74" height="55" viewBox="0 0 74 55"><defs><linearGradient id="a" x1="0.332" y1="-0.087" x2="0.675" y2="0.978" gradientUnits="objectBoundingBox"><stop offset="0" stop-color="#e8b420"/><stop offset="1" stop-color="#e98823"/></linearGradient><linearGradient id="b" x1="0.4" y1="-0.041" x2="0.658" y2="1.161" xlink:href="#a"/><linearGradient id="c" x1="0.127" y1="-0.294" x2="0.738" y2="1.251" xlink:href="#a"/></defs><g transform="translate(-59 -188.6)"><g transform="translate(81.356 188.6)"><path d="M385.219,258.4c.141-.679.3-1.359.432-2.047a16.011,16.011,0,0,0,.291-2.753,25.3,25.3,0,0,0-.115-3.37,15.568,15.568,0,0,0-1.182-4.173,40.65,40.65,0,0,0-2.788-5.135c-.953-1.57-1.932-3.123-2.761-4.764a19.756,19.756,0,0,1-2.047-5.77,9.8,9.8,0,0,1,1.764-7.72,12.8,12.8,0,0,1,1.509-1.659c.053-.044.1-.106.185-.115.044.079,0,.15-.018.221a10.611,10.611,0,0,0,.741,7.12,35.1,35.1,0,0,0,4.332,6.855c.988,1.253,2.038,2.47,2.964,3.776a11.923,11.923,0,0,1,2.206,5.664,13.355,13.355,0,0,1-.609,5.5,22.9,22.9,0,0,1-3.485,6.643c-.4.538-.812,1.059-1.253,1.562a.993.993,0,0,0-.106.159A.2.2,0,0,1,385.219,258.4Z" transform="translate(-371.342 -218.05)" fill="url(#a)"/><path d="M454.4,213.673c-.053.406-.1.82-.159,1.226a11.937,11.937,0,0,1-3.035,6.149c-.221.247-.45.476-.679.706-.026.026-.062.079-.106.062-.062-.026-.035-.088-.026-.132a17.653,17.653,0,0,0,.265-2.161c.026-.476.035-.953.018-1.429a21.457,21.457,0,0,0-.229-2.594,10.011,10.011,0,0,0-1.509-3.935,22.323,22.323,0,0,0-2.4-3.132c-1.12-1.235-2.373-2.329-3.608-3.45a28.263,28.263,0,0,1-4.658-5.179,13.691,13.691,0,0,1-2.259-5.258,8.452,8.452,0,0,1,.926-5.8c.026-.044.053-.088.079-.124.009-.009.026-.009.053-.026a8.062,8.062,0,0,0,1.5,4.455,24.973,24.973,0,0,0,3.167,4.041,42.253,42.253,0,0,0,5.523,4.746,28.7,28.7,0,0,1,4.085,3.582,11.429,11.429,0,0,1,2.6,4.217,9.139,9.139,0,0,1,.415,2.241.593.593,0,0,0,.035.212Z" transform="translate(-425.109 -188.6)" fill="url(#b)"/><path d="M318.285,282.7c-.053.176-.1.344-.15.512a16.533,16.533,0,0,0-.644,5.611,15.189,15.189,0,0,0,.75,3.758c.565,1.791,1.288,3.529,1.888,5.3a32.815,32.815,0,0,1,1.562,5.717,8.531,8.531,0,0,1-.45,4.649c-.044.106-.071.291-.176.291-.124.009-.124-.176-.176-.282a24.878,24.878,0,0,0-2.329-3.97c-.97-1.412-2-2.788-2.832-4.288a13.138,13.138,0,0,1-1.623-4.958,14.464,14.464,0,0,1,1.112-7.217,21.5,21.5,0,0,1,2.938-5.038C318.188,282.762,318.205,282.709,318.285,282.7Z" transform="translate(-314.016 -274.398)" fill="url(#c)"/></g><g transform="translate(59 233.242)"><path d="M462.158,653.8a.2.2,0,0,0-.168.044c-.238.15-.423.379-.644.547a3.314,3.314,0,0,1-2.126.423c-.935-.018-1.87-.018-2.8,0a8.841,8.841,0,0,1-1.676-.071,2.55,2.55,0,0,1-1.465-.768c-.071-.079-.141-.176-.247-.185-.273-.018-.044.485,0,.582.1.273.229.547.326.82.071.194.132.388.15.45l.062.168a2.9,2.9,0,0,1,.141.388c.035.123.053.441.273.353.1-.035.15-.132.212-.221a1.422,1.422,0,0,1,.935-.529,4.982,4.982,0,0,1,1.147-.071c.2.009.388.009.582.018v5.8c0,.079,0,.185-.009.318,0,.062,0,.141-.009.238s-.009.194-.009.318c0,.062-.009.159-.018.273,0,0-.009.2-.035.4,0,.018-.009.062-.018.123a.745.745,0,0,1-.026.115.509.509,0,0,1-.309.335,2.579,2.579,0,0,1-.441.079,1.581,1.581,0,0,0-.353.026.221.221,0,0,0-.062.035.106.106,0,0,0,0,.124.184.184,0,0,0,.115.062,2.157,2.157,0,0,0,.238.009h.256c.168,0,.344-.009.512-.018.273-.009.556-.018.829-.018.079,0,.124,0,.573.018.212.009.238.009.318.009.124,0,.229.009.388.009.229,0,.459.009.688.009a.432.432,0,0,0,.185-.026.134.134,0,0,0,.088-.115c0-.035-.035-.062-.062-.079a.224.224,0,0,0-.106-.018c-.141,0-.282-.009-.415-.018a1.49,1.49,0,0,1-.432-.079.509.509,0,0,1-.309-.335.551.551,0,0,1-.026-.115.464.464,0,0,1-.018-.124c-.026-.194-.035-.4-.035-.4-.009-.115-.009-.2-.018-.274-.009-.123-.009-.229-.009-.318a1.921,1.921,0,0,0-.009-.238c0-.132,0-.238-.009-.318V655.78h.362a6.817,6.817,0,0,1,1.129.035,1.738,1.738,0,0,1,.618.194,1.664,1.664,0,0,1,.529.459c.062.079.168.177.247.115a.15.15,0,0,0,.053-.088q.5-1.165.953-2.356c.044-.132.071-.3-.053-.335" transform="translate(-418.305 -653.795)" fill="#fff"/><path d="M60.632,663.366a5.2,5.2,0,0,1-.1-7.473A5.748,5.748,0,0,1,64.69,654.5a12.972,12.972,0,0,1,1.906.132c.5.062.962.185,1.35.221.141.009.159.079.159.159,0,.106-.035.265-.062.723-.026.432-.009,1.156-.035,1.42-.009.194-.035.318-.159.318-.106,0-.132-.115-.132-.3a1.871,1.871,0,0,0-.512-1.209,3.915,3.915,0,0,0-2.664-.812,3.435,3.435,0,0,0-2.47.812,4.339,4.339,0,0,0-1.217,3.4,4.414,4.414,0,0,0,4.138,4.676A2.874,2.874,0,0,0,67.4,663.3a2.268,2.268,0,0,0,.45-.865c.035-.212.062-.265.168-.265.088,0,.115.088.115.194a12.446,12.446,0,0,1-.291,1.747.45.45,0,0,1-.344.379,7.6,7.6,0,0,1-2.364.3,6.5,6.5,0,0,1-4.5-1.429" transform="translate(-59 -654.438)" fill="#fff"/><path d="M179.956,676.82c0-1.711,0-1.958-.026-2.311-.026-.4-.132-.565-.485-.626-.141-.026-.3-.035-.45-.053-.132,0-.194-.035-.194-.115s.079-.115.247-.115c.591,0,1.394.035,1.614.035.353,0,1.288-.035,1.685-.035a4,4,0,0,1,2.153.459,1.923,1.923,0,0,1,.856,1.562,3.021,3.021,0,0,1-1.535,2.444c.97,1.209,1.791,2.25,2.47,2.947a2.2,2.2,0,0,0,1.27.776c.115.018.212.018.3.026.106,0,.159.053.159.106,0,.088-.079.132-.221.132h-1.1a2.822,2.822,0,0,1-1.42-.247,5.348,5.348,0,0,1-1.5-1.588c-.476-.653-.962-1.35-1.129-1.553-.035-.053-.106-.062-.185-.062l-.935-.026a.079.079,0,0,0-.088.088v.238c0,1.015,0,1.791.053,2.25.026.326.106.582.459.618.159.035.4.035.556.053.106,0,.141.053.141.106,0,.079-.079.132-.221.132-.7,0-1.615-.035-1.791-.035-.194,0-1,.035-1.456.035-.141,0-.221-.035-.221-.115,0-.053.053-.115.185-.115a2.618,2.618,0,0,0,.423-.035c.221-.053.3-.291.326-.635a22.848,22.848,0,0,0,.062-2.338Zm1.482.847c0,.106.026.159.106.185a2.764,2.764,0,0,0,.882.132,1.192,1.192,0,0,0,.8-.194,1.877,1.877,0,0,0,.644-1.615,1.781,1.781,0,0,0-1.747-2.011,2.254,2.254,0,0,0-.591.053c-.062.026-.088.062-.088.159v3.291Z" transform="translate(-168.231 -671.853)" fill="#fff"/><path d="M282.347,675.817c0-1.711,0-2.011-.026-2.382s-.115-.512-.476-.591a3.106,3.106,0,0,0-.45-.035c-.132,0-.194-.035-.194-.115s.079-.106.265-.106c.556,0,1.076.035,1.659.035.353,0,2.761,0,2.973-.009.221-.026.423-.053.529-.062a.852.852,0,0,1,.185-.053c.062,0,.079.053.079.106a4.521,4.521,0,0,0-.106.706c-.009.212-.026.432-.053.776,0,.062-.026.185-.132.185-.079,0-.106-.062-.115-.212a1.008,1.008,0,0,0-.062-.371c-.079-.212-.185-.326-.75-.4-.221-.026-1.4-.053-1.667-.053-.053,0-.079.035-.079.115v2.717c0,.079.009.115.079.115.273,0,1.535,0,1.826-.009.326-.026.5-.062.609-.185.079-.106.132-.141.185-.141s.079.027.079.088c0,.079-.053.326-.088.865,0,.221-.035.7-.035.785s-.009.212-.115.212c-.079,0-.115-.115-.115-.185a2.1,2.1,0,0,0-.035-.3c-.062-.247-.194-.424-.653-.459-.238-.026-1.341-.035-1.632-.035-.062,0-.079.053-.079.115v.856c0,.379-.009,1.3,0,1.641.026.776.194.944,1.4.944a2.985,2.985,0,0,0,1.076-.132c.3-.141.432-.37.529-.838.026-.115.053-.185.141-.185s.088.106.088.221a7.446,7.446,0,0,1-.159,1.314c-.079.291-.185.291-.618.291-1.147,0-2.126-.062-3.3-.062-.476,0-.944.035-1.5.035-.159,0-.238-.035-.238-.115,0-.053.035-.115.194-.115a2.472,2.472,0,0,0,.406-.035c.238-.053.3-.3.344-.7.053-.459.053-1.315.053-2.276v-1.967Z" transform="translate(-261.678 -670.85)" fill="#fff"/><path d="M361.114,676.711c-.053,0-.079.026-.106.088l-.582,1.429a2.373,2.373,0,0,0-.168.679c0,.326.406.344.653.344.159,0,.194.053.194.106,0,.088-.088.115-.212.115-.406,0-.882-.035-1.288-.035-.132,0-.785.035-1.394.035-.141,0-.212-.026-.212-.115,0-.062.062-.115.159-.115.829-.079,1.015-.238,1.314-1l2.788-6.581c.238-.618.371-.865.512-.865.106,0,.168.115.3.406.221.644,2.17,5.126,2.9,6.811.423.988.75,1.156,1.023,1.209a2.37,2.37,0,0,0,.432.026c.141,0,.194.053.194.115,0,.079-.053.115-.221.115-.556,0-1.932.026-2.761-.026-.115-.009-.194-.035-.194-.106,0-.053.053-.079.115-.106.115-.035.212-.079.132-.238l-.873-2.214a.1.1,0,0,0-.106-.079Zm2.356-.662c.062,0,.062-.026.053-.062l-1.023-2.682c-.035-.106-.079-.132-.132,0l-1.041,2.682c-.009.035,0,.062.053.062Z" transform="translate(-331.737 -669.3)" fill="#fff"/><path d="M554,675.994c0-1.967,1.315-4.393,4.773-4.393,2.894,0,4.649,1.773,4.649,4.182a4.45,4.45,0,0,1-4.755,4.57A4.327,4.327,0,0,1,554,675.994m7.72.212c0-2.382-1.367-4.005-3.282-4.005-1.288,0-2.735.653-2.735,3.414,0,2.285,1.253,4.129,3.432,4.129.794-.009,2.585-.335,2.585-3.538" transform="translate(-510.521 -670.029)" fill="#fff"/><path d="M679.688,678.226c0,1.615.318,2.285.909,2.735a2.4,2.4,0,0,0,2.911-.141c.644-.609.653-1.641.653-2.788v-1.394c0-1.685-.026-1.958-.035-2.311-.026-.379-.088-.565-.476-.626a3.425,3.425,0,0,0-.424-.053c-.132,0-.194-.035-.194-.115s.062-.115.247-.115c.591,0,1.323.035,1.367.035.159,0,.882-.035,1.35-.035.168,0,.247.035.247.115s-.062.115-.212.115a1.254,1.254,0,0,0-.344.053c-.3.053-.379.22-.406.618-.026.353-.035.644-.035,2.329v1.182c0,1.253-.115,2.576-1.12,3.388a3.607,3.607,0,0,1-2.409.785,3.892,3.892,0,0,1-2.6-.776,3.526,3.526,0,0,1-1.041-2.947v-1.641c0-1.711,0-1.967-.026-2.338-.026-.353-.106-.529-.459-.609-.106-.026-.318-.035-.476-.053-.132,0-.212-.053-.212-.132s.088-.106.274-.106c.591,0,1.394.035,1.694.035.247,0,1.1-.035,1.509-.035.185,0,.265.035.265.115s-.079.115-.194.115a2.716,2.716,0,0,0-.344.053c-.318.053-.406.247-.423.626-.026.353-.026.679-.026,2.312v1.606Z" transform="translate(-622.671 -671.67)" fill="#fff"/><path d="M797.556,676.82c0-1.711,0-1.958-.026-2.311-.026-.4-.132-.565-.485-.626-.141-.026-.3-.035-.45-.053-.132,0-.194-.035-.194-.115s.079-.115.247-.115c.591,0,1.394.035,1.614.035.353,0,1.288-.035,1.685-.035a4,4,0,0,1,2.153.459,1.923,1.923,0,0,1,.856,1.562,3.021,3.021,0,0,1-1.535,2.444c.971,1.209,1.791,2.25,2.47,2.947a2.21,2.21,0,0,0,1.279.776c.115.018.212.018.3.026.106,0,.159.053.159.106,0,.088-.079.132-.221.132h-1.1a2.821,2.821,0,0,1-1.42-.247,5.346,5.346,0,0,1-1.5-1.588c-.476-.653-.962-1.35-1.129-1.553-.035-.053-.106-.062-.185-.062l-.935-.026a.079.079,0,0,0-.088.088v.238c0,1.015,0,1.791.053,2.25.026.326.106.582.459.618.159.035.4.035.556.053.106,0,.141.053.141.106,0,.079-.079.132-.221.132-.7,0-1.614-.035-1.791-.035-.194,0-1,.035-1.456.035-.141,0-.221-.035-.221-.115,0-.053.053-.115.185-.115a2.618,2.618,0,0,0,.423-.035c.221-.053.3-.291.326-.635a22.815,22.815,0,0,0,.062-2.338v-2Zm1.491.847c0,.106.026.159.106.185a2.764,2.764,0,0,0,.882.132,1.192,1.192,0,0,0,.8-.194,1.877,1.877,0,0,0,.644-1.615,1.781,1.781,0,0,0-1.747-2.011,2.254,2.254,0,0,0-.591.053c-.062.026-.088.062-.088.159v3.291Z" transform="translate(-731.628 -671.853)" fill="#fff"/></g></g></svg>